%TF.GenerationSoftware,KiCad,Pcbnew,10.0.1*%
%TF.CreationDate,2026-04-29T18:58:27+02:00*%
%TF.ProjectId,SimWheelButtons,53696d57-6865-4656-9c42-7574746f6e73,rev?*%
%TF.SameCoordinates,Original*%
%TF.FileFunction,Soldermask,Top*%
%TF.FilePolarity,Negative*%
%FSLAX46Y46*%
G04 Gerber Fmt 4.6, Leading zero omitted, Abs format (unit mm)*
G04 Created by KiCad (PCBNEW 10.0.1) date 2026-04-29 18:58:27*
%MOMM*%
%LPD*%
G01*
G04 APERTURE LIST*
%ADD10R,1.700000X1.700000*%
%ADD11C,1.700000*%
%ADD12C,1.651000*%
%ADD13O,1.700000X1.700000*%
G04 APERTURE END LIST*
D10*
%TO.C,J3*%
X139320000Y-68460000D03*
D11*
X139320000Y-71000000D03*
X136780000Y-68460000D03*
X136780000Y-71000000D03*
X134240000Y-68460000D03*
X134240000Y-71000000D03*
X131700000Y-68460000D03*
X131700000Y-71000000D03*
X129160000Y-68460000D03*
X129160000Y-71000000D03*
X126620000Y-68460000D03*
X126620000Y-71000000D03*
X124080000Y-68460000D03*
X124080000Y-71000000D03*
X121540000Y-68460000D03*
X121540000Y-71000000D03*
X119000000Y-68460000D03*
X119000000Y-71000000D03*
X116460000Y-68460000D03*
X116460000Y-71000000D03*
X113920000Y-68460000D03*
X113920000Y-71000000D03*
X111380000Y-68460000D03*
X111380000Y-71000000D03*
X108840000Y-68460000D03*
X108840000Y-71000000D03*
X106300000Y-68460000D03*
X106300000Y-71000000D03*
%TD*%
D12*
%TO.C,MH2*%
X101270000Y-83490000D03*
%TD*%
%TO.C,MH4*%
X141910000Y-98730000D03*
%TD*%
%TO.C,MH1*%
X101270000Y-98730000D03*
%TD*%
%TO.C,MH3*%
X141910000Y-83490000D03*
%TD*%
D10*
%TO.C,J1*%
X103810000Y-98730000D03*
D13*
X106350000Y-98730000D03*
X108890000Y-98730000D03*
X111430000Y-98730000D03*
X113970000Y-98730000D03*
X116510000Y-98730000D03*
X119050000Y-98730000D03*
X121590000Y-98730000D03*
X124130000Y-98730000D03*
X126670000Y-98730000D03*
X129210000Y-98730000D03*
X131750000Y-98730000D03*
X134290000Y-98730000D03*
X136830000Y-98730000D03*
X139370000Y-98730000D03*
%TD*%
D10*
%TO.C,J2*%
X103810000Y-83490000D03*
D13*
X106350000Y-83490000D03*
X108890000Y-83490000D03*
X111430000Y-83490000D03*
X113970000Y-83490000D03*
X116510000Y-83490000D03*
X119050000Y-83490000D03*
X121590000Y-83490000D03*
X124130000Y-83490000D03*
X126670000Y-83490000D03*
X129210000Y-83490000D03*
X131750000Y-83490000D03*
X134290000Y-83490000D03*
X136830000Y-83490000D03*
X139370000Y-83490000D03*
%TD*%
M02*
