%TF.GenerationSoftware,KiCad,Pcbnew,10.0.1*%
%TF.CreationDate,2026-04-29T18:58:27+02:00*%
%TF.ProjectId,SimWheelButtons,53696d57-6865-4656-9c42-7574746f6e73,rev?*%
%TF.SameCoordinates,Original*%
%TF.FileFunction,Legend,Top*%
%TF.FilePolarity,Positive*%
%FSLAX46Y46*%
G04 Gerber Fmt 4.6, Leading zero omitted, Abs format (unit mm)*
G04 Created by KiCad (PCBNEW 10.0.1) date 2026-04-29 18:58:27*
%MOMM*%
%LPD*%
G01*
G04 APERTURE LIST*
%ADD10C,0.100000*%
%ADD11C,0.150000*%
%ADD12C,0.120000*%
G04 APERTURE END LIST*
D10*
X100000000Y-82220000D02*
X143180000Y-82220000D01*
X143180000Y-100000000D01*
X100000000Y-100000000D01*
X100000000Y-82220000D01*
D11*
X141154819Y-70063333D02*
X141869104Y-70063333D01*
X141869104Y-70063333D02*
X142011961Y-70110952D01*
X142011961Y-70110952D02*
X142107200Y-70206190D01*
X142107200Y-70206190D02*
X142154819Y-70349047D01*
X142154819Y-70349047D02*
X142154819Y-70444285D01*
X141154819Y-69682380D02*
X141154819Y-69063333D01*
X141154819Y-69063333D02*
X141535771Y-69396666D01*
X141535771Y-69396666D02*
X141535771Y-69253809D01*
X141535771Y-69253809D02*
X141583390Y-69158571D01*
X141583390Y-69158571D02*
X141631009Y-69110952D01*
X141631009Y-69110952D02*
X141726247Y-69063333D01*
X141726247Y-69063333D02*
X141964342Y-69063333D01*
X141964342Y-69063333D02*
X142059580Y-69110952D01*
X142059580Y-69110952D02*
X142107200Y-69158571D01*
X142107200Y-69158571D02*
X142154819Y-69253809D01*
X142154819Y-69253809D02*
X142154819Y-69539523D01*
X142154819Y-69539523D02*
X142107200Y-69634761D01*
X142107200Y-69634761D02*
X142059580Y-69682380D01*
%TO.C,J3*%
D12*
X140700000Y-67080000D02*
X140700000Y-68460000D01*
X139320000Y-67080000D02*
X140700000Y-67080000D01*
X138050000Y-67080000D02*
X104920000Y-67080000D01*
X138050000Y-67080000D02*
X138050000Y-69730000D01*
X104920000Y-67080000D02*
X104920000Y-72380000D01*
X140700000Y-69730000D02*
X140700000Y-72380000D01*
X138050000Y-69730000D02*
X140700000Y-69730000D01*
X140700000Y-72380000D02*
X104920000Y-72380000D01*
%TD*%
M02*
