M48
; DRILL file KiCad 10.0.1 date 2026-04-29T18:58:30
; FORMAT={-:-/ absolute / metric / decimal}
; #@! TF.CreationDate,2026-04-29T18:58:30+02:00
; #@! TF.GenerationSoftware,Kicad,Pcbnew,10.0.1
; #@! TF.FileFunction,Plated,1,2,PTH
FMAT,2
METRIC
; #@! TA.AperFunction,Plated,PTH,ViaDrill
T1C0.400
; #@! TA.AperFunction,Plated,PTH,ComponentDrill
T2C1.000
%
G90
G05
T1
X106.5Y-77.0
X109.0Y-77.0
X111.5Y-77.0
X114.0Y-77.0
X116.5Y-77.0
X119.0Y-77.0
X121.5Y-77.0
X124.0Y-77.0
X127.0Y-77.0
X129.5Y-77.0
X132.0Y-77.0
X134.5Y-77.0
X137.0Y-77.0
X139.5Y-77.0
T2
X103.81Y-83.49
X103.81Y-98.73
X106.3Y-68.46
X106.3Y-71.0
X106.35Y-83.49
X106.35Y-98.73
X108.84Y-68.46
X108.84Y-71.0
X108.89Y-83.49
X108.89Y-98.73
X111.38Y-68.46
X111.38Y-71.0
X111.43Y-83.49
X111.43Y-98.73
X113.92Y-68.46
X113.92Y-71.0
X113.97Y-83.49
X113.97Y-98.73
X116.46Y-68.46
X116.46Y-71.0
X116.51Y-83.49
X116.51Y-98.73
X119.0Y-68.46
X119.0Y-71.0
X119.05Y-83.49
X119.05Y-98.73
X121.54Y-68.46
X121.54Y-71.0
X121.59Y-83.49
X121.59Y-98.73
X124.08Y-68.46
X124.08Y-71.0
X124.13Y-83.49
X124.13Y-98.73
X126.62Y-68.46
X126.62Y-71.0
X126.67Y-83.49
X126.67Y-98.73
X129.16Y-68.46
X129.16Y-71.0
X129.21Y-83.49
X129.21Y-98.73
X131.7Y-68.46
X131.7Y-71.0
X131.75Y-83.49
X131.75Y-98.73
X134.24Y-68.46
X134.24Y-71.0
X134.29Y-83.49
X134.29Y-98.73
X136.78Y-68.46
X136.78Y-71.0
X136.83Y-83.49
X136.83Y-98.73
X139.32Y-68.46
X139.32Y-71.0
X139.37Y-83.49
X139.37Y-98.73
M30
